<svg width="18" height="18" viewBox="0 0 18 18" fill="none" xmlns="http://www.w3.org/2000/svg">
<rect x="0.5" y="0.5" width="17" height="17" rx="2.5" stroke="url(#paint0_linear_5_994)"/>
<path d="M7.00002 11.7801L4.68668 9.46672C4.56203 9.34207 4.39297 9.27204 4.21668 9.27204C4.0404 9.27204 3.87133 9.34207 3.74668 9.46672C3.62203 9.59137 3.552 9.76043 3.552 9.93672C3.552 10.024 3.56919 10.1104 3.6026 10.1911C3.636 10.2717 3.68496 10.345 3.74668 10.4067L6.53335 13.1934C6.79335 13.4534 7.21335 13.4534 7.47335 13.1934L14.5267 6.14005C14.6513 6.0154 14.7214 5.84634 14.7214 5.67005C14.7214 5.49377 14.6513 5.3247 14.5267 5.20005C14.402 5.0754 14.233 5.00537 14.0567 5.00537C13.8804 5.00537 13.7113 5.0754 13.5867 5.20005L7.00002 11.7801Z" fill="#3D45FA"/>
<defs>
<linearGradient id="paint0_linear_5_994" x1="1" y1="-4.46621e-07" x2="18" y2="18" gradientUnits="userSpaceOnUse">
<stop stop-color="#403EFC"/>
<stop offset="1" stop-color="#07FFD2"/>
</linearGradient>
</defs>
</svg>
